<svg width="24" height="24" viewBox="0 0 24 24" fill="none" xmlns="http://www.w3.org/2000/svg">
<path fill-rule="evenodd" clip-rule="evenodd" d="M12.583 2.44949C12.7737 2.73632 12.8034 3.10111 12.6616 3.415C12.2369 4.35468 12 5.39832 12 6.49998C12 10.6421 15.3579 14 19.5 14C19.8019 14 20.0993 13.9822 20.3911 13.9477C20.733 13.9073 21.0715 14.0455 21.2874 14.3136C21.5033 14.5818 21.5661 14.9421 21.4537 15.2674C20.1 19.1843 16.3801 21.9998 12 21.9998C6.47715 21.9998 2 17.5226 2 11.9998C2 6.56955 6.32796 2.15051 11.7231 2.00355C12.0674 1.99417 12.3923 2.16265 12.583 2.44949ZM10.2845 4.18407C6.69082 4.96917 4 8.17036 4 11.9998C4 16.4181 7.58172 19.9998 12 19.9998C14.9667 19.9998 17.5579 18.3845 18.9393 15.9837C13.9536 15.6935 10 11.5585 10 6.49998C10 5.70188 10.0986 4.92593 10.2845 4.18407Z" fill="#2D2A30"/>
</svg>
