<svg width="24" height="24" viewBox="0 0 24 24" fill="none" xmlns="http://www.w3.org/2000/svg">
<path d="M11 5C11 5.55228 11.4477 6 12 6C12.5523 6 13 5.55228 13 5V3C13 2.44772 12.5523 2 12 2C11.4477 2 11 2.44772 11 3V5Z" fill="#2D2A30"/>
<path fill-rule="evenodd" clip-rule="evenodd" d="M7 12C7 9.23858 9.23858 7 12 7C14.7614 7 17 9.23858 17 12C17 14.7614 14.7614 17 12 17C9.23858 17 7 14.7614 7 12ZM12 9C10.3431 9 9 10.3431 9 12C9 13.6569 10.3431 15 12 15C13.6569 15 15 13.6569 15 12C15 10.3431 13.6569 9 12 9Z" fill="#2D2A30"/>
<path d="M2 12C2 11.4477 2.44772 11 3 11H5C5.55228 11 6 11.4477 6 12C6 12.5523 5.55228 13 5 13H3C2.44772 13 2 12.5523 2 12Z" fill="#2D2A30"/>
<path d="M19 11C18.4477 11 18 11.4477 18 12C18 12.5523 18.4477 13 19 13H21C21.5523 13 22 12.5523 22 12C22 11.4477 21.5523 11 21 11H19Z" fill="#2D2A30"/>
<path d="M12 22C11.4477 22 11 21.5523 11 21V19C11 18.4477 11.4477 18 12 18C12.5523 18 13 18.4477 13 19V21C13 21.5523 12.5523 22 12 22Z" fill="#2D2A30"/>
<path d="M4.92912 4.92894C5.31965 4.53841 5.95281 4.53841 6.34334 4.92894L7.75755 6.34315C8.14808 6.73368 8.14808 7.36684 7.75755 7.75737C7.36703 8.14789 6.73386 8.14789 6.34334 7.75737L4.92912 6.34315C4.5386 5.95263 4.5386 5.31946 4.92912 4.92894Z" fill="#2D2A30"/>
<path d="M17.6568 16.2427C17.2663 15.8521 16.6331 15.8521 16.2426 16.2427C15.8521 16.6332 15.8521 17.2663 16.2426 17.6569L17.6568 19.0711C18.0473 19.4616 18.6805 19.4616 19.071 19.0711C19.4616 18.6806 19.4616 18.0474 19.071 17.6569L17.6568 16.2427Z" fill="#2D2A30"/>
<path d="M4.92927 19.0711C4.53875 18.6806 4.53875 18.0474 4.92927 17.6569L6.34349 16.2427C6.73401 15.8521 7.36718 15.8521 7.7577 16.2427C8.14823 16.6332 8.14823 17.2664 7.7577 17.6569L6.34349 19.0711C5.95296 19.4616 5.3198 19.4616 4.92927 19.0711Z" fill="#2D2A30"/>
<path d="M16.2428 6.34316C15.8522 6.73368 15.8522 7.36685 16.2428 7.75737C16.6333 8.14789 17.2664 8.14789 17.657 7.75737L19.0712 6.34316C19.4617 5.95263 19.4617 5.31947 19.0712 4.92894C18.6807 4.53842 18.0475 4.53842 17.657 4.92894L16.2428 6.34316Z" fill="#2D2A30"/>
</svg>
